HIERARCHY
ROOT Hips
{
	OFFSET 0.00000 0.00000 0.00000
	CHANNELS 6 Xposition Yposition Zposition Yrotation Zrotation Xrotation 
	JOINT Lumbar
	{
		OFFSET 0 0 0
		CHANNELS 3 Zrotation Xrotation Yrotation
		JOINT Neck
		{
			OFFSET 0.00 0.2701 0.00
			CHANNELS 3 Zrotation Xrotation Yrotation
			End Site
			{
				OFFSET 0.00 0.1379 0.00
			}
		}
		JOINT RightShoulder
		{
			OFFSET 0.0119 0.2289 0.1181
			CHANNELS 3 Zrotation Xrotation Yrotation
			JOINT RightElbow
			{
				OFFSET 0.00 -0.1475 0.00
				CHANNELS 2 Zrotation Yrotation
				JOINT RightWrist
				{
					OFFSET 0.00 -0.1605 0.00
					CHANNELS 2 Zrotation Xrotation
					End Site
					{
						OFFSET 0.0040 -0.1068 0.0006
					}
				}
			}
		}
		JOINT LeftShoulder
		{
			OFFSET 0.0119 0.2289 -0.1181
			CHANNELS 3 Zrotation Xrotation Yrotation
			JOINT LeftElbow
			{
				OFFSET 0.00 -0.1475 0.00
				CHANNELS 2 Zrotation Yrotation
				JOINT LeftWrist
				{
					OFFSET 0.00 -0.1605 0.00
					CHANNELS 2 Zrotation Xrotation
					End Site
					{
						OFFSET 0.0040 -0.1068 -0.0006
					}
				}
			}
		}
	}
	JOINT RightHip
	{
		OFFSET 0.0316 -0.0424 0.0458
		CHANNELS 3 Zrotation Xrotation Yrotation
		JOINT RightKnee
		{
			OFFSET 0.00 -0.2438 0.00
			CHANNELS 1 Zrotation
			JOINT RightAnkle
			{
				OFFSET 0.00 -0.2449 0.00
				CHANNELS 3 Zrotation Xrotation Yrotation
				End Site
				{
					OFFSET 0.1237 -0.0542 0.0051
				}
			}
		}
	}
	JOINT LeftHip
	{
		OFFSET 0.0316 -0.0424 -0.0458
		CHANNELS 3 Zrotation Xrotation Yrotation
		JOINT LeftKnee
		{
			OFFSET 0.00 -0.2438 0.00
			CHANNELS 1 Zrotation
			JOINT LeftAnkle
			{
				OFFSET 0.00 -0.2449 0.00
				CHANNELS 3 Zrotation Xrotation Yrotation
				End Site
				{
					OFFSET 0.1237 -0.0542 -0.0051
				}
			}
		}
	}
}
MOTION
Frames: 30
Frame Time: 0.02
0.09906 0.20571 -0.07465 221.17472 0 -14.88238 -7.73746 14.8429 -8.18775 -8.58044 -16.13395 -11.80393 96.37665 -45.26539 46.48322 99.98438 47.42617 17.23054 -10.51716 64.61316 6.99652 -43.72333 82.27356 -100.96935 -75.22904 21.88402 92.03863 1.22873 0.36339 -123.44915 19.81647 -0.42981 0.14201 72.19067 2.93066 7.90306 -147.07827 22.28804 36.09628 19.59513
0.09911 0.20598 -0.07603 221.57921 0 -15.0791 -8.04868 15.06791 -8.29572 -8.54573 -16.05656 -11.91874 96.19409 -46.21901 45.84439 101.54202 50.24379 16.01398 -10.19676 64.21734 7.0182 -43.80157 83.38901 -100.87074 -75.22944 21.88785 91.87875 1.29107 0.08101 -123.42548 19.79622 -4.9334 -1.7154 72.48816 3.1132 8.00262 -147.07827 22.28803 36.09624 19.59512
0.09909 0.20628 -0.07754 221.99334 0 -15.33327 -8.38099 15.27506 -8.48999 -8.55268 -15.94471 -12.0987 96.06445 -47.03797 45.16816 102.87601 53.37823 14.91287 -9.7918 63.99178 7.01059 -43.83474 84.21005 -100.70864 -75.22934 21.88679 91.7524 1.23363 -0.36 -123.43605 19.76885 -9.80708 -3.7731 72.80467 3.26468 7.98106 -147.07826 22.28802 36.09619 19.59511
0.09909 0.20656 -0.07897 222.38965 0 -15.54884 -8.69072 15.47301 -8.64718 -8.56828 -15.85604 -12.24427 95.92902 -47.9105 44.52297 104.28566 56.31959 13.78164 -9.4278 63.72317 7.02172 -43.89798 85.14615 -100.58423 -75.22931 21.88655 91.61584 1.23337 -0.71926 -123.43303 19.74541 -14.39171 -5.68453 73.10111 3.42445 7.99576 -147.07826 22.28801 36.09614 19.59509
0.09918 0.2069 -0.08052 222.84128 0 -15.81812 -9.06001 15.74176 -8.79755 -8.46021 -15.72943 -12.40406 95.71628 -48.81795 43.8179 105.80325 59.48175 12.55461 -9.05095 63.30346 7.00342 -43.91349 86.15911 -100.43287 -75.22936 21.88703 91.45615 1.22291 -1.13672 -123.41768 19.71852 -19.57439 -7.86461 73.44782 3.6111 8.08778 -147.07826 22.288 36.09609 19.59508
0.09905 0.20711 -0.08183 223.17968 0 -15.98903 -9.30834 15.86091 -8.97934 -8.62185 -15.67676 -12.55404 95.67571 -49.61753 43.22772 107.04434 62.25268 11.55556 -8.68201 63.24043 7.04327 -44.02064 86.94465 -100.31728 -75.22933 21.88675 91.35324 1.20398 -1.46496 -123.43755 19.6973 -23.57135 -9.52254 73.69344 3.73436 7.99499 -147.07826 22.28799 36.09605 19.59506
0.09829 0.20691 -0.08249 223.21376 0 -15.87147 -9.21902 15.55611 -9.2572 -9.52452 -15.82659 -12.63541 96.11691 -50.17809 42.9798 107.56594 63.88146 11.1528 -8.35094 64.13086 7.23358 -44.38919 87.15105 -100.33284 -75.22934 21.88684 91.39997 1.19957 -1.49512 -123.54794 19.69381 -24.12815 -9.64453 73.65681 3.67926 7.36822 -147.07826 22.28799 36.09605 19.59506
0.09732 0.20657 -0.08289 223.1322 0 -15.6534 -9.00644 15.10435 -9.55833 -10.69664 -16.05385 -12.70962 96.72658 -50.62997 42.84689 107.81856 65.10023 10.97681 -8.03207 65.37302 7.48653 -44.85242 87.14209 -100.38274 -75.22934 21.88685 91.50264 1.18889 -1.42966 -123.69276 19.69628 -23.47768 -9.23559 73.51726 3.56282 6.56858 -147.07826 22.28799 36.09606 19.59505
0.09646 0.2063 -0.08339 223.09655 0 -15.48279 -8.84852 14.72999 -9.82866 -11.7429 -16.25407 -12.80485 97.24634 -51.11442 42.65023 108.20217 66.49559 10.70011 -7.71068 66.44908 7.72389 -45.27581 87.24829 -100.40384 -75.22934 21.88682 91.57947 1.17561 -1.41394 -123.82147 19.69588 -23.41817 -9.09539 73.42353 3.48136 5.88338 -147.07826 22.28798 36.09606 19.59504
0.09554 0.206 -0.084 223.08804 0 -15.30612 -8.69664 14.31021 -10.18648 -12.80679 -16.42188 -12.82867 97.82287 -51.66468 42.49757 108.54327 67.94623 10.41653 -7.37272 67.55924 7.90918 -45.68646 87.27543 -100.4762 -75.22934 21.88685 91.65977 1.18197 -1.37805 -123.95372 19.6959 -23.2021 -8.85253 73.33442 3.36961 5.04503 -147.07826 22.28798 36.09607 19.59504
0.0947 0.20574 -0.0843 222.99693 0 -15.11819 -8.50326 13.95035 -10.36762 -13.89502 -16.67189 -12.99695 98.32221 -52.05446 42.28504 108.90915 69.17659 10.20086 -7.07429 68.67734 8.21391 -46.14371 87.41466 -100.45374 -75.22934 21.88682 91.74497 1.14646 -1.35873 -124.08579 19.69657 -23.01096 -8.68771 73.2111 3.30589 4.48307 -147.07826 22.28798 36.09608 19.59503
0.09418 0.20565 -0.08378 222.69303 0 -14.91684 -8.21948 13.79204 -10.04513 -15.00484 -17.16709 -13.58054 98.5507 -52.02213 41.84462 109.43333 69.92703 10.10637 -6.87385 69.7509 8.87104 -46.73355 87.96207 -100.13461 -75.22933 21.88672 91.83645 1.00624 -1.41186 -124.21387 19.6975 -23.25773 -8.92567 73.01727 3.39724 4.75431 -147.07826 22.28799 36.09609 19.59504
0.09377 0.20562 -0.08295 222.31235 0 -14.70845 -7.8991 13.69903 -9.54571 -16.12551 -17.73624 -14.3066 98.69744 -51.83344 41.3462 109.98783 70.46274 10.07384 -6.71474 70.81551 9.63972 -47.36254 88.62221 -99.72361 -75.22932 21.88659 91.92969 0.82299 -1.48336 -124.33967 19.69894 -23.5556 -9.24921 72.79269 3.53779 5.30534 -147.07826 22.28799 36.0961 19.59504
0.09331 0.20556 -0.08228 221.97533 0 -14.5078 -7.59933 13.57628 -9.13317 -17.22822 -18.24651 -14.95764 98.89349 -51.72104 40.89764 110.51442 71.07715 10.01949 -6.54249 71.87092 10.3321 -47.95568 89.20261 -99.37293 -75.2293 21.88648 92.01757 0.65383 -1.54355 -124.4629 19.70021 -23.77921 -9.49407 72.58288 3.65112 5.71046 -147.07826 22.28799 36.0961 19.59505
0.09283 0.20551 -0.08155 221.59737 0 -14.28533 -7.27875 13.44921 -8.69325 -18.39693 -18.86348 -15.65228 99.04848 -51.58395 40.35555 111.09327 71.75856 9.94639 -6.34672 72.99601 11.13302 -48.62698 89.89735 -98.94706 -75.22929 21.88634 92.12615 0.50728 -1.61346 -124.6019 19.70139 -24.17531 -9.88617 72.36613 3.78286 6.18774 -147.07826 22.288 36.09611 19.59506
0.09242 0.20545 -0.08085 221.28782 0 -14.10693 -6.9941 13.34785 -8.26918 -19.42524 -19.27814 -16.28948 99.26195 -51.46102 39.99088 111.57136 72.25303 9.92406 -6.2097 73.9676 11.73572 -49.14524 90.38145 -98.653 -75.22928 21.88625 92.19196 0.30374 -1.66814 -124.7079 19.70283 -24.24136 -10.00174 72.15784 3.88867 6.5846 -147.07826 22.288 36.09612 19.59506
0.09218 0.20537 -0.0803 221.1879 0 -14.06113 -6.82123 13.30856 -7.92167 -20.07831 -19.0863 -16.73755 99.70268 -51.42946 40.14879 111.7875 72.29943 10.02589 -6.22395 74.52866 11.74446 -49.21624 90.27571 -98.76775 -75.22929 21.88636 92.13319 -0.04824 -1.68156 -124.71569 19.70467 -23.376 -9.30966 71.98122 3.91199 6.68188 -147.07826 22.288 36.09611 19.59506
0.09199 0.20528 -0.07979 221.15973 0 -14.05886 -6.6858 13.29245 -7.59787 -20.58513 -18.69335 -17.12205 100.19584 -51.41539 40.48373 111.8979 72.16422 10.1757 -6.29597 74.93122 11.55295 -49.13409 89.95168 -99.01438 -75.22931 21.88653 92.03209 -0.45557 -1.67851 -124.69151 19.70677 -22.18402 -8.34331 71.8146 3.90768 6.69115 -147.07826 22.28799 36.0961 19.59505
0.09178 0.20519 -0.07924 221.09798 0 -14.03092 -6.53138 13.26168 -7.27018 -21.14814 -18.41178 -17.5329 100.63395 -51.38485 40.72432 112.04286 72.10394 10.30295 -6.34209 75.3978 11.46576 -49.13162 89.71589 -99.18533 -75.22932 21.88665 91.95413 -0.8367 -1.67994 -124.68692 19.70886 -21.1527 -7.52034 71.64334 3.91552 6.74755 -147.07826 22.28799 36.09609 19.59505
0.09157 0.20512 -0.07873 221.03743 0 -14.02689 -6.38366 13.24997 -6.90795 -21.75669 -18.04902 -17.95966 101.20054 -51.38524 41.01962 112.24666 72.06797 10.43567 -6.38829 75.89996 11.32721 -49.08854 89.52985 -99.41796 -75.22934 21.88682 91.86003 -1.22447 -1.69455 -124.66128 19.71051 -20.07126 -6.62091 71.47112 3.92652 6.78349 -147.07826 22.28799 36.09608 19.59504
0.09137 0.205 -0.07817 220.99265 0 -13.98433 -6.23175 13.20392 -6.62476 -22.23347 -17.80594 -18.33604 101.51379 -51.32682 41.24626 112.30118 71.94114 10.56761 -6.44732 76.28813 11.24548 -49.09253 89.18731 -99.55663 -75.22935 21.88693 91.78914 -1.61008 -1.67771 -124.67143 19.71313 -19.01552 -5.81455 71.30397 3.92406 6.83751 -147.07826 22.28798 36.09607 19.59504
0.09117 0.20479 -0.07749 220.97248 0 -13.81768 -6.05629 13.05115 -6.5621 -22.39893 -17.94806 -18.59025 101.10801 -51.10755 41.21855 111.98051 71.60888 10.68431 -6.52935 76.41977 11.37868 -49.26875 88.46238 -99.38645 -75.22934 21.88682 91.79549 -1.98354 -1.57682 -124.7925 19.71827 -18.11859 -5.33308 71.14627 3.8884 6.96194 -147.07826 22.28798 36.09607 19.59504
0.09097 0.20453 -0.07677 220.9663 0 -13.61213 -5.87609 12.86382 -6.57767 -22.4337 -18.21615 -18.79483 100.44721 -50.82825 41.1198 111.5112 71.19246 10.79845 -6.62185 76.43873 11.57369 -49.49644 87.58786 -99.12047 -75.22932 21.88665 91.82619 -2.35112 -1.44495 -124.94991 19.72437 -17.25799 -4.95449 70.99389 3.84047 7.10642 -147.07826 22.28798 36.09607 19.59503
0.09077 0.2043 -0.07607 220.95509 0 -13.42903 -5.70003 12.69613 -6.55287 -22.51707 -18.42259 -19.02066 99.90778 -50.57335 41.06811 111.10232 70.8149 10.91436 -6.70819 76.49632 11.73389 -49.69733 86.78338 -98.91047 -75.22931 21.88652 91.84379 -2.7166 -1.32802 -125.08788 19.73007 -16.3744 -4.52762 70.84062 3.79969 7.241 -147.07826 22.28798 36.09607 19.59503
0.09055 0.20405 -0.07536 220.94098 0 -13.2272 -5.51662 12.51288 -6.54866 -22.6405 -18.64065 -19.25043 99.3466 -50.3309 40.96074 110.71922 70.42793 11.02959 -6.80227 76.60078 11.9156 -49.90767 85.96168 -98.6539 -75.22929 21.88635 91.86818 -3.10499 -1.20704 -125.23706 19.73565 -15.50347 -4.09665 70.68122 3.75116 7.37598 -147.07826 22.28798 36.09608 19.59503
0.09038 0.20382 -0.07467 220.93502 0 -13.05469 -5.3472 12.35327 -6.52047 -22.65189 -18.867 -19.46032 98.77002 -50.04831 40.94944 110.24928 70.0434 11.14479 -6.88224 76.5838 12.06972 -50.11208 85.14437 -98.46807 -75.22928 21.88625 91.88518 -3.44251 -1.08719 -125.37194 19.74168 -14.62323 -3.70349 70.53575 3.71641 7.51605 -147.07826 22.28798 36.09608 19.59502
0.09035 0.20361 -0.07403 220.95045 0 -12.97178 -5.21511 12.26945 -6.40164 -22.38192 -19.08661 -19.63335 98.20851 -49.66787 41.22615 109.57002 69.68357 11.26182 -6.91782 76.2525 12.13376 -50.29216 84.36623 -98.51638 -75.22929 21.88633 91.87232 -3.64946 -0.97972 -125.4587 19.74902 -13.67378 -3.3798 70.42745 3.72098 7.66464 -147.07826 22.28798 36.09608 19.59502
0.09037 0.20341 -0.07342 220.97286 0 -12.91971 -5.09755 12.21012 -6.25684 -22.00536 -19.31093 -19.78728 97.64098 -49.2496 41.59998 108.81046 69.33053 11.37841 -6.93906 75.80511 12.16865 -50.46442 83.60056 -98.63586 -75.2293 21.88647 91.85199 -3.80363 -0.87432 -125.52989 19.75673 -12.72153 -3.09375 70.33301 3.74019 7.81804 -147.07826 22.28798 36.09608 19.59502
0.09037 0.20321 -0.0728 220.99017 0 -12.85382 -4.97475 12.13812 -6.12728 -21.68067 -19.5334 -19.94636 97.07904 -48.84938 41.92507 108.09164 68.97704 11.49414 -6.96844 75.41574 12.21711 -50.63794 82.8365 -98.71178 -75.22932 21.88659 91.83767 -3.97599 -0.76686 -125.60827 19.76406 -11.79528 -2.79833 70.23212 3.75411 7.97023 -147.07826 22.28798 36.09608 19.59502
0.09037 0.20301 -0.07216 221.01602 0 -12.78561 -4.846 12.0714 -5.98598 -21.33603 -19.75921 -20.11854 96.49601 -48.44245 42.26771 107.34827 68.60933 11.61436 -6.99141 74.99932 12.26628 -50.8227 82.03625 -98.83098 -75.22933 21.88672 91.81339 -4.17227 -0.66272 -125.68758 19.77229 -10.76686 -2.47393 70.13179 3.76229 8.11954 -147.07826 22.28798 36.09608 19.59502
